<svg width="178" height="179" viewBox="0 0 178 179" fill="none" xmlns="http://www.w3.org/2000/svg">
<rect x="1.4611" y="1.65251" width="175.078" height="175.078" rx="87.5389" fill="white"/>
<rect x="1.4611" y="1.65251" width="175.078" height="175.078" rx="87.5389" stroke="white" stroke-width="2.92221"/>
<path fill-rule="evenodd" clip-rule="evenodd" d="M67.9779 64.8444C67.9779 53.37 77.4517 43.9907 89.2345 43.9907C101.017 43.9907 110.491 53.37 110.491 64.8444C110.491 76.3189 101.017 85.6982 89.2345 85.6982C77.4517 85.6982 67.9779 76.3189 67.9779 64.8444ZM89.2345 38.625C74.5745 38.625 62.6122 50.3211 62.6122 64.8444C62.6122 79.3678 74.5745 91.0639 89.2345 91.0639C103.894 91.0639 115.857 79.3678 115.857 64.8444C115.857 50.3211 103.894 38.625 89.2345 38.625ZM65.0605 99.0856C58.0144 99.0856 51.2479 101.837 46.2519 106.749C41.2543 111.663 38.4382 118.336 38.4382 125.305V137.073C38.4382 138.555 39.6394 139.756 41.1211 139.756C42.6028 139.756 43.8039 138.555 43.8039 137.073V125.305C43.8039 119.789 46.0322 114.49 50.0137 110.575C53.9967 106.659 59.4084 104.451 65.0605 104.451H112.939C118.592 104.451 124.003 106.659 127.986 110.575C131.968 114.49 134.196 119.789 134.196 125.305V137.073C134.196 138.555 135.397 139.756 136.879 139.756C138.361 139.756 139.562 138.555 139.562 137.073V125.305C139.562 118.336 136.746 111.663 131.748 106.749C126.752 101.837 119.986 99.0856 112.939 99.0856H65.0605Z" fill="#A01212"/>
</svg>
