<svg width="28" height="18" viewBox="0 0 28 18" fill="none" xmlns="http://www.w3.org/2000/svg">
<path d="M21 3.59141H4.66667L6.53333 2.23141C6.6559 2.14211 6.75916 2.03023 6.83722 1.90217C6.91528 1.7741 6.96661 1.63235 6.98827 1.48502C7.00994 1.33768 7.00152 1.18764 6.9635 1.04347C6.92548 0.899293 6.85859 0.763805 6.76667 0.64474C6.67474 0.525675 6.55958 0.425364 6.42774 0.349535C6.29591 0.273707 6.14999 0.223845 5.99832 0.202797C5.84666 0.181749 5.6922 0.189927 5.54379 0.226864C5.39537 0.263801 5.2559 0.328774 5.13333 0.418073L0.466667 3.81807C0.321771 3.92364 0.204167 4.06053 0.123168 4.2179C0.0421692 4.37527 0 4.5488 0 4.72474C0 4.90068 0.0421692 5.07421 0.123168 5.23158C0.204167 5.38895 0.321771 5.52584 0.466667 5.63141L5.13333 9.03141C5.33528 9.17854 5.5809 9.25807 5.83333 9.25807C6.01445 9.25807 6.19308 9.21711 6.35508 9.13842C6.51708 9.05974 6.658 8.9455 6.76667 8.80474C6.85859 8.68568 6.92548 8.55019 6.9635 8.40601C7.00152 8.26184 7.00994 8.1118 6.98827 7.96446C6.96661 7.81713 6.91528 7.67538 6.83722 7.54731C6.75916 7.41925 6.6559 7.30737 6.53333 7.21807L4.66667 5.85807H21C22.2377 5.85807 23.4247 6.33569 24.2998 7.18586C25.175 8.03602 25.6667 9.18909 25.6667 10.3914C25.6667 11.5937 25.175 12.7468 24.2998 13.597C23.4247 14.4471 22.2377 14.9247 21 14.9247H1.16667C0.857247 14.9247 0.560501 15.0441 0.341709 15.2567C0.122917 15.4692 0 15.7575 0 16.0581C0 16.3587 0.122917 16.6469 0.341709 16.8595C0.560501 17.072 0.857247 17.1914 1.16667 17.1914H21C22.8565 17.1914 24.637 16.475 25.9497 15.1997C27.2625 13.9245 28 12.1949 28 10.3914C28 8.58793 27.2625 6.85833 25.9497 5.58308C24.637 4.30783 22.8565 3.59141 21 3.59141Z" fill="white"/>
</svg>
