<svg width="30" height="34" viewBox="0 0 30 34" fill="none" xmlns="http://www.w3.org/2000/svg">
<path d="M3.42499 12.8704C3.14923 13.1547 2.97788 13.5284 2.94006 13.9278C2.90224 14.3272 3.0003 14.7277 3.21755 15.0613C3.43481 15.3949 3.75787 15.6409 4.13182 15.7576C4.50577 15.8743 4.90754 15.8544 5.26884 15.7014C5.47442 15.607 5.66312 15.4778 5.82706 15.3193C5.97922 15.1592 6.09984 14.9705 6.1823 14.7635C6.279 14.5519 6.32538 14.3197 6.31763 14.0861C6.31576 13.6305 6.13958 13.1939 5.82706 12.8704C5.66981 12.7076 5.48271 12.5784 5.27658 12.4902C5.07044 12.402 4.84934 12.3566 4.62603 12.3566C4.40272 12.3566 4.18162 12.402 3.97548 12.4902C3.76934 12.5784 3.58225 12.7076 3.42499 12.8704ZM4.62603 3.66509C5.07467 3.66509 5.50493 3.84808 5.82217 4.1738C6.1394 4.49952 6.31763 4.94129 6.31763 5.40193C6.31763 5.86257 6.1394 6.30434 5.82217 6.63006C5.50493 6.95579 5.07467 7.13877 4.62603 7.13877C4.17739 7.13877 3.74713 7.32176 3.42989 7.64748C3.11265 7.9732 2.93443 8.41498 2.93443 8.87562C2.93443 9.33626 3.11265 9.77803 3.42989 10.1037C3.74713 10.4295 4.17739 10.6125 4.62603 10.6125C5.5167 10.6119 6.39154 10.3706 7.16264 9.91292C7.93373 9.45523 8.57393 8.79722 9.01889 8.00503C9.46386 7.21283 9.69792 6.31434 9.69757 5.39984C9.69721 4.48535 9.46244 3.58705 9.01686 2.79522C8.57127 2.00339 7.93057 1.34592 7.15911 0.888858C6.38766 0.4318 5.51264 0.19126 4.62196 0.191406C3.73129 0.191553 2.85634 0.432381 2.08503 0.889693C1.31372 1.347 0.673213 2.00469 0.227876 2.79667C0.116029 2.9949 0.0434828 3.21389 0.0144156 3.44104C-0.0146517 3.66818 0.000334128 3.89898 0.0585101 4.12015C0.116686 4.34132 0.216903 4.54849 0.353388 4.72972C0.489874 4.91095 0.659931 5.06267 0.853767 5.17614C1.24219 5.40258 1.70207 5.46209 2.13306 5.3417C2.56406 5.22131 2.93119 4.93078 3.15434 4.53351C3.30338 4.26846 3.51798 4.04855 3.77642 3.89605C4.03486 3.74355 4.32795 3.66387 4.62603 3.66509ZM24.9252 5.40193H14.7756C14.327 5.40193 13.8967 5.58492 13.5795 5.91064C13.2622 6.23636 13.084 6.67813 13.084 7.13877C13.084 7.59941 13.2622 8.04119 13.5795 8.36691C13.8967 8.69263 14.327 8.87562 14.7756 8.87562H24.9252C25.3738 8.87562 25.8041 9.05861 26.1213 9.38433C26.4386 9.71005 26.6168 10.1518 26.6168 10.6125V27.4946L23.961 24.9761C23.649 24.6763 23.2381 24.5087 22.8107 24.5072H8.00922C7.56058 24.5072 7.13032 24.3242 6.81308 23.9985C6.49585 23.6728 6.31763 23.231 6.31763 22.7704V21.0335C6.31763 20.5729 6.1394 20.1311 5.82217 19.8054C5.50493 19.4797 5.07467 19.2967 4.62603 19.2967C4.17739 19.2967 3.74713 19.4797 3.42989 19.8054C3.11265 20.1311 2.93443 20.5729 2.93443 21.0335V22.7704C2.93443 24.1523 3.4691 25.4776 4.4208 26.4548C5.37251 27.4319 6.66331 27.9809 8.00922 27.9809H22.151L27.2258 32.7225C27.5205 33.0066 27.9045 33.1729 28.3084 33.1914C28.5404 33.1888 28.7699 33.1417 28.985 33.0525C29.2876 32.9169 29.545 32.6933 29.7253 32.4094C29.9057 32.1255 30.0011 31.7935 30 31.4546V10.6125C30 9.23054 29.4653 7.90522 28.5136 6.92806C27.5619 5.9509 26.2711 5.40193 24.9252 5.40193Z" fill="white"/>
</svg>
