<svg width="30" height="31" viewBox="0 0 30 31" fill="none" xmlns="http://www.w3.org/2000/svg">
<path fill-rule="evenodd" clip-rule="evenodd" d="M9.52966 0.640625C8.44772 0.647056 7.41188 1.0805 6.64657 1.84704C5.88126 2.61358 5.44811 3.65148 5.44097 4.73587V26.5454C5.44811 27.6298 5.88126 28.6677 6.64657 29.4342C7.41188 30.2008 8.44772 30.6342 9.52966 30.6406H14.9622C16.0439 30.6342 17.0794 30.2007 17.8443 29.434C18.6092 28.6674 19.0417 27.6295 19.0482 26.5454V21.0896C19.0482 19.271 16.3278 19.271 16.3278 21.0896V26.5454C16.3317 26.7262 16.299 26.9059 16.2318 27.0737C16.1645 27.2416 16.0641 27.394 15.9365 27.5219C15.8089 27.6498 15.6568 27.7505 15.4894 27.8179C15.3219 27.8853 15.1426 27.918 14.9622 27.9141H9.52966C9.34937 27.9178 9.17019 27.8849 9.0029 27.8175C8.83562 27.75 8.68368 27.6493 8.55623 27.5214C8.42878 27.3935 8.32846 27.2412 8.26129 27.0734C8.19413 26.9057 8.16151 26.7261 8.1654 26.5454V4.73587C8.1615 4.55506 8.19416 4.37533 8.26141 4.2075C8.32866 4.03967 8.42911 3.88723 8.5567 3.75934C8.6843 3.63146 8.8364 3.53079 9.00384 3.46338C9.17129 3.39598 9.35061 3.36325 9.53102 3.36715H14.9636C15.144 3.36325 15.3233 3.39598 15.4907 3.46338C15.6582 3.53079 15.8103 3.63146 15.9379 3.75934C16.0655 3.88723 16.1659 4.03967 16.2332 4.2075C16.3004 4.37533 16.3331 4.55506 16.3292 4.73587V10.1917C16.3292 12.0103 19.0495 12.0103 19.0495 10.1917V4.73587C19.0431 3.6515 18.6104 2.61339 17.8452 1.84673C17.08 1.08008 16.0441 0.646706 14.9622 0.640625H9.52966ZM1.37405 6.0746C1.19198 6.07274 1.01138 6.10753 0.842974 6.17693C0.674568 6.24632 0.521777 6.3489 0.39366 6.47858C0.265543 6.60826 0.164708 6.7624 0.0971342 6.93186C0.0295601 7.10133 -0.00337765 7.28267 0.0002735 7.46513V23.8161C0.0002735 24.1777 0.143577 24.5244 0.398659 24.7801C0.653741 25.0358 0.999707 25.1794 1.36045 25.1794C1.72119 25.1794 2.06715 25.0358 2.32224 24.7801C2.57732 24.5244 2.72062 24.1777 2.72062 23.8161V7.46513C2.72423 7.28587 2.69252 7.10765 2.62731 6.94069C2.56209 6.77373 2.46466 6.62131 2.34059 6.49214C2.21652 6.36297 2.06825 6.25961 1.90426 6.18796C1.74027 6.11631 1.56379 6.07779 1.38493 6.0746C1.3813 6.07458 1.37768 6.07458 1.37405 6.0746ZM23.1872 8.80658C23.1436 8.8063 23.1 8.80812 23.0566 8.81203C22.7982 8.83711 22.5524 8.93577 22.3482 9.09636C22.1439 9.25694 21.9898 9.47275 21.904 9.71829C21.8182 9.96384 21.8043 10.2289 21.8639 10.4821C21.9235 10.7353 22.0542 10.9661 22.2405 11.1473L25.3648 14.276H12.3235C12.2763 14.2736 12.2291 14.2736 12.182 14.276C10.3689 14.3714 10.509 17.0993 12.3235 17.0053H25.3566L22.2418 20.123C22.1152 20.2493 22.0146 20.3994 21.9458 20.5647C21.8771 20.7299 21.8414 20.9072 21.841 21.0862C21.8406 21.2653 21.8753 21.4427 21.9433 21.6083C22.0112 21.7739 22.1111 21.9244 22.2371 22.0514C22.3631 22.1783 22.5128 22.2791 22.6777 22.348C22.8426 22.417 23.0194 22.4527 23.1981 22.4531C23.3767 22.4536 23.5537 22.4187 23.719 22.3506C23.8842 22.2825 24.0344 22.1825 24.1611 22.0561L29.6045 16.6004C29.8578 16.3449 30 15.9994 30 15.6393C30 15.2791 29.8578 14.9336 29.6045 14.6782L24.1611 9.2251C24.0351 9.09374 23.8841 8.98903 23.7171 8.91714C23.55 8.84526 23.3703 8.80766 23.1885 8.80658H23.1872Z" fill="white"/>
</svg>
