<svg width="28" height="23" viewBox="0 0 28 23" fill="none" xmlns="http://www.w3.org/2000/svg">
<path d="M18.5237 8.83948L14.7012 12.6617C14.4724 12.6008 14.2368 12.5685 14 12.5654C13.2707 12.5654 12.5712 12.8551 12.0555 13.3708C11.5397 13.8865 11.25 14.5859 11.25 15.3152C11.2531 15.552 11.2854 15.7875 11.3463 16.0164L10.2738 17.0888C10.1449 17.2166 10.0426 17.3687 9.97279 17.5363C9.90298 17.7038 9.86704 17.8835 9.86704 18.065C9.86704 18.2465 9.90298 18.4262 9.97279 18.5938C10.0426 18.7613 10.1449 18.9134 10.2738 19.0412C10.4016 19.17 10.5537 19.2723 10.7212 19.3421C10.8888 19.4119 11.0685 19.4479 11.25 19.4479C11.4315 19.4479 11.6112 19.4119 11.7788 19.3421C11.9464 19.2723 12.0984 19.17 12.2263 19.0412L13.2988 17.9688C13.5276 18.0296 13.7632 18.0619 14 18.065C14.7293 18.065 15.4288 17.7753 15.9445 17.2596C16.4603 16.7439 16.75 16.0445 16.75 15.3152C16.7469 15.0784 16.7146 14.8429 16.6537 14.614L20.4762 10.7918C20.7351 10.5329 20.8806 10.1818 20.8806 9.81565C20.8806 9.44952 20.7351 9.09838 20.4762 8.83948C20.2173 8.58058 19.8661 8.43513 19.5 8.43513C19.1338 8.43513 18.7827 8.58058 18.5237 8.83948ZM14 0.191406C12.1943 0.191406 10.4063 0.547033 8.73812 1.23798C7.0699 1.92893 5.55411 2.94167 4.27731 4.21837C1.69869 6.7968 0.250042 10.2939 0.250042 13.9403C0.243271 16.6634 1.05266 19.326 2.57379 21.5847C2.778 21.8874 3.09409 22.0965 3.45252 22.1661C3.81095 22.2358 4.18235 22.1602 4.48503 21.956C4.78771 21.7518 4.99686 21.4357 5.06649 21.0773C5.13611 20.7189 5.06049 20.3475 4.85628 20.0449C3.74874 18.3888 3.11179 16.4632 3.01344 14.4734C2.9151 12.4836 3.35904 10.5045 4.29787 8.7474C5.2367 6.99027 6.63517 5.52108 8.34396 4.49673C10.0527 3.47237 12.0077 2.93131 14 2.93131C15.9923 2.93131 17.9473 3.47237 19.656 4.49673C21.3648 5.52108 22.7633 6.99027 23.7021 8.7474C24.641 10.5045 25.0849 12.4836 24.9866 14.4734C24.8882 16.4632 24.2513 18.3888 23.1437 20.0449C23.0424 20.1946 22.9716 20.3629 22.9354 20.5401C22.8992 20.7173 22.8983 20.8999 22.9328 21.0774C22.9673 21.2549 23.0365 21.4239 23.1364 21.5747C23.2363 21.7254 23.3649 21.855 23.515 21.956C23.7426 22.1089 24.0107 22.1903 24.285 22.1897C24.5102 22.19 24.7321 22.135 24.9311 22.0296C25.1301 21.9241 25.3001 21.7713 25.4262 21.5847C26.9473 19.326 27.7567 16.6634 27.75 13.9403C27.75 10.2939 26.3013 6.7968 23.7227 4.21837C21.1441 1.63995 17.6467 0.191406 14 0.191406Z" fill="white"/>
</svg>
