<svg width="32" height="31" viewBox="0 0 32 31" fill="none" xmlns="http://www.w3.org/2000/svg">
<path fill-rule="evenodd" clip-rule="evenodd" d="M22.0896 6.27267C22.0896 9.63126 19.367 12.3539 16.0084 12.3539C12.6498 12.3539 9.9271 9.63126 9.9271 6.27267C9.9271 2.91408 12.6498 0.191406 16.0084 0.191406C19.367 0.191406 22.0896 2.91408 22.0896 6.27267ZM26.904 18.8507C28.9924 20.9209 30.4388 23.5498 31.0696 26.4219C31.173 26.9236 31.1638 27.4419 31.0429 27.9396C30.922 28.4373 30.6923 28.9021 30.3703 29.3004C30.0358 29.7182 29.6116 30.0553 29.1291 30.2869C28.6466 30.5185 28.1182 30.6386 27.583 30.6383H4.43368C3.90006 30.645 3.37172 30.5319 2.88759 30.3074C2.40346 30.0829 1.97586 29.7526 1.6363 29.3409C1.30842 28.9379 1.07533 28.4663 0.954283 27.961C0.833231 27.4558 0.827308 26.9298 0.936952 26.4219C1.56776 23.5498 3.01422 20.9209 5.10262 18.8507C8.01079 15.9928 11.931 14.4007 16.0084 14.4216C19.3429 14.3928 22.5944 15.4612 25.262 17.4622C25.8478 17.8776 26.3971 18.3421 26.904 18.8507Z" fill="white"/>
</svg>
